<svg xmlns="http://www.w3.org/2000/svg" width="62" height="32" fill="none" viewBox="0 0 62 32"><path fill="#fff" d="M.75 16C.75 7.578 7.578.75 16 .75h30C54.422.75 61.25 7.578 61.25 16S54.422 31.25 46 31.25H16C7.578 31.25.75 24.422.75 16Z"/><path stroke="#D7E2DC" stroke-width="1.5" d="M.75 16C.75 7.578 7.578.75 16 .75h30C54.422.75 61.25 7.578 61.25 16S54.422 31.25 46 31.25H16C7.578 31.25.75 24.422.75 16Z"/><path fill="#084121" d="M20.33 11h-1.25l-1.062-1.827h-1.161V11h-1.125V5.672h2.448c.384 0 .723.078 1.017.234.294.15.519.36.675.63.162.264.243.561.243.891 0 .396-.105.735-.315 1.017-.21.276-.444.462-.702.558L20.33 11Zm-2.186-2.826a.854.854 0 0 0 .603-.216.683.683 0 0 0 .243-.531.693.693 0 0 0-.243-.54.854.854 0 0 0-.603-.216h-1.287v1.503h1.287ZM25.779 11h-4.203V5.672h4.113v.999h-2.988v1.107h2.358v.963h-2.358v1.26h3.078V11Zm2.433 0h-1.116V5.672h1.008l2.844 3.519h.027V5.672h1.116V11h-1.017l-2.835-3.519h-.027V11Zm9.81 0H33.82V5.672h4.113v.999h-2.988v1.107h2.358v.963h-2.358v1.26h3.078V11Zm3.522 0h-1.07l-1.837-5.328h1.18l1.232 3.708h.027l1.215-3.708h1.044L44.55 9.38h.027l1.233-3.708h1.161L45.135 11h-1.08l-1.242-3.78h-.018L41.545 11Z"/><path fill="url(#paint0_linear_6979_152660)" d="M17.489 21.183c0 .319.054.61.148.875.095.278.244.504.42.703.175.198.378.344.62.45.244.12.514.172.798.172.284 0 .554-.053.797-.172.243-.106.46-.252.635-.45.176-.2.31-.425.405-.703.095-.265.15-.556.15-.875 0-.318-.041-.61-.136-.887a2.08 2.08 0 0 0-.405-.69 1.784 1.784 0 0 0-.635-.45 2.009 2.009 0 0 0-.811-.16c-.284 0-.554.054-.797.16-.243.119-.446.265-.622.464a2.11 2.11 0 0 0-.419.689 2.586 2.586 0 0 0-.148.874Z"/><path fill="url(#paint1_linear_6979_152660)" d="M25.894 21.197c0 .318.054.61.149.874.095.279.243.504.419.69.175.198.378.344.621.45.244.12.514.172.798.172.297 0 .567-.053.81-.159.243-.106.46-.252.635-.45.176-.199.311-.424.406-.69.094-.264.135-.556.135-.887 0-.318-.054-.61-.149-.888a2.078 2.078 0 0 0-.405-.69 2 2 0 0 0-.635-.463 1.99 1.99 0 0 0-.797-.16 1.99 1.99 0 0 0-.798.16c-.243.119-.445.265-.621.464a2.11 2.11 0 0 0-.419.689c-.095.278-.149.57-.149.888Z"/><path fill="url(#paint2_linear_6979_152660)" fill-rule="evenodd" d="M19 14.299a6.61 6.61 0 0 0 0 13.219h21.48l1.1-2.57h-.797l-2.919-7.515h2.04l2.257 5.977 2.337-5.977h1.986l-4.113 10.085H43a6.61 6.61 0 0 0 0-13.22H19Zm13.925.921a.961.961 0 0 0-.307.725c0 .287.097.534.306.739.21.205.46.314.753.314s.544-.11.753-.314a.991.991 0 0 0 .307-.739.961.961 0 0 0-.307-.725 1.03 1.03 0 0 0-.753-.3 1.03 1.03 0 0 0-.752.3Zm-17.409 5.924c0-.557.095-1.074.27-1.538.176-.464.42-.874.73-1.219.31-.331.69-.596 1.121-.795a3.542 3.542 0 0 1 1.406-.278c.554 0 1.067.106 1.513.33.446.226.784.544.986.929V14.94h1.878v6.468c0 .53-.094 1.02-.284 1.47-.189.451-.459.836-.797 1.167a3.523 3.523 0 0 1-1.23.755c-.472.186-.999.279-1.567.279a4.225 4.225 0 0 1-1.607-.292 3.783 3.783 0 0 1-1.284-.822 3.697 3.697 0 0 1-.838-1.259 3.94 3.94 0 0 1-.297-1.563Zm8.406.106c0-.57.094-1.1.297-1.577.203-.477.473-.888.838-1.246a3.781 3.781 0 0 1 1.283-.822 3.73 3.73 0 0 1 .651-.197c-.538-.259-.776-.762-.715-1.51.72.097 1.208.323 1.463.678.303-.849 1.134-1.373 2.496-1.574.089 1.197-.227 2.03-.948 2.501.078.023.154.048.228.076a3.76 3.76 0 0 1 1.23.768c.338.332.608.716.797 1.167.19.45.284.94.284 1.47v3.963h-1.878v-1.126c-.203.384-.54.689-.987.914-.445.226-.959.345-1.513.345-.5 0-.973-.093-1.405-.292a3.187 3.187 0 0 1-1.121-.795 3.629 3.629 0 0 1-.73-1.206 4.328 4.328 0 0 1-.27-1.537Zm10.715 3.697v-7.5h-1.919v7.5h1.919Zm.958-9.94h1.919v9.94h-1.919v-9.94Z" clip-rule="evenodd"/><defs><linearGradient id="paint0_linear_6979_152660" x1="31" x2="31" y1="14.299" y2="27.518" gradientUnits="userSpaceOnUse"><stop stop-color="#54734C"/><stop offset="1" stop-color="#103520"/></linearGradient><linearGradient id="paint1_linear_6979_152660" x1="31" x2="31" y1="14.299" y2="27.518" gradientUnits="userSpaceOnUse"><stop stop-color="#54734C"/><stop offset="1" stop-color="#103520"/></linearGradient><linearGradient id="paint2_linear_6979_152660" x1="31" x2="31" y1="14.299" y2="27.518" gradientUnits="userSpaceOnUse"><stop stop-color="#54734C"/><stop offset="1" stop-color="#103520"/></linearGradient></defs></svg>