<svg xmlns="http://www.w3.org/2000/svg" width="44" height="27" fill="none" viewBox="0 0 44 27"><path fill="#262A33" d="m8.542 16.863 2.33 1.504 25.145-.312-4.251-9.902-3.474-4.302h-17.42l-2.33 13.012Z"/><path fill="#262A33" stroke="#262A33" stroke-width=".609" d="M34.01 10.687v3.815l5.907-.88-5.907-2.935Z"/><mask id="path-3-outside-1_880_37048" width="44" height="14" x=".203" y="11.888" fill="#000" maskUnits="userSpaceOnUse"><path fill="#fff" d="M.203 11.888h44v14h-44z"/><path d="M2.355 17.458c0-1.006.305-1.788.915-2.347.609-.558 1.452-.838 2.529-.838 1.087 0 2.204.102 3.352.305L8.8 17.26c-1.27-.254-2.103-.381-2.5-.381-.396 0-.594.122-.594.365 0 .092.03.158.092.199.06.03.106.055.137.076.03.02.086.046.168.076.091.03.162.06.213.091.06.02.244.097.548.229.315.122.549.223.701.305.163.07.381.193.655.365.793.518 1.189 1.28 1.189 2.286s-.3 1.788-.899 2.346c-.6.549-1.463.823-2.59.823-1.118 0-2.215-.137-3.291-.411l.213-2.575c1.361.345 2.28.518 2.758.518.315 0 .472-.112.472-.335a.29.29 0 0 0-.122-.244 1.526 1.526 0 0 0-.335-.198 8.426 8.426 0 0 0-.64-.275c-.284-.122-.523-.223-.716-.304a5.055 5.055 0 0 1-.686-.412c-.812-.558-1.219-1.34-1.219-2.346Zm15.63 6.43h-3.199l-.305-1.463H12.79l-.32 1.463H9.407l1.966-9.462h4.647l1.966 9.462Zm-3.732-3.429-.58-3.169h-.06l-.594 3.17h1.234Zm12.172-6.033-1.828 9.462H19.92l-1.935-9.462h3.52l.731 5.805h.183l.655-5.805h3.352Zm6.638 9.462H27.03v-9.462h6.247l-.214 2.514H30.29v1.142h2.423v2.195H30.29v1.295h2.987l-.214 2.316Zm8.31-6.415c0 .61-.101 1.097-.304 1.463-.194.355-.498.67-.915.945l1.417 4.007h-3.367l-.945-3.26h-.243v3.26h-3.124v-9.462h4.038c1.178 0 2.047.249 2.605.746.559.488.838 1.255.838 2.301Zm-4.037 1.295c.233 0 .396-.066.487-.198.102-.142.152-.386.152-.731 0-.346-.05-.584-.152-.716s-.259-.198-.472-.198h-.396v1.843h.38Z"/></mask><g filter="url(#filter0_i_880_37048)"><path fill="url(#paint0_linear_880_37048)" d="M2.355 17.458c0-1.006.305-1.788.915-2.347.609-.558 1.452-.838 2.529-.838 1.087 0 2.204.102 3.352.305L8.8 17.26c-1.27-.254-2.103-.381-2.5-.381-.396 0-.594.122-.594.365 0 .092.03.158.092.199.06.03.106.055.137.076.03.02.086.046.168.076.091.03.162.06.213.091.06.02.244.097.548.229.315.122.549.223.701.305.163.07.381.193.655.365.793.518 1.189 1.28 1.189 2.286s-.3 1.788-.899 2.346c-.6.549-1.463.823-2.59.823-1.118 0-2.215-.137-3.291-.411l.213-2.575c1.361.345 2.28.518 2.758.518.315 0 .472-.112.472-.335a.29.29 0 0 0-.122-.244 1.526 1.526 0 0 0-.335-.198 8.426 8.426 0 0 0-.64-.275c-.284-.122-.523-.223-.716-.304a5.055 5.055 0 0 1-.686-.412c-.812-.558-1.219-1.34-1.219-2.346Zm15.63 6.43h-3.199l-.305-1.463H12.79l-.32 1.463H9.407l1.966-9.462h4.647l1.966 9.462Zm-3.732-3.429-.58-3.169h-.06l-.594 3.17h1.234Zm12.172-6.033-1.828 9.462H19.92l-1.935-9.462h3.52l.731 5.805h.183l.655-5.805h3.352Zm6.638 9.462H27.03v-9.462h6.247l-.214 2.514H30.29v1.142h2.423v2.195H30.29v1.295h2.987l-.214 2.316Zm8.31-6.415c0 .61-.101 1.097-.304 1.463-.194.355-.498.67-.915.945l1.417 4.007h-3.367l-.945-3.26h-.243v3.26h-3.124v-9.462h4.038c1.178 0 2.047.249 2.605.746.559.488.838 1.255.838 2.301Zm-4.037 1.295c.233 0 .396-.066.487-.198.102-.142.152-.386.152-.731 0-.346-.05-.584-.152-.716s-.259-.198-.472-.198h-.396v1.843h.38Z"/></g><path fill="#262A33" d="m3.27 15.111-1.22-1.33 1.22 1.33Zm5.88-.533 1.79.234a1.805 1.805 0 0 0-1.475-2.011l-.314 1.777ZM8.8 17.26l-.353 1.77a1.805 1.805 0 0 0 2.143-1.536L8.8 17.26Zm-3.001.183-1.001 1.501c.062.042.127.08.194.113l.807-1.614Zm.137.076L4.935 19.02l1.001-1.501Zm.168.076-.634 1.69.063.022.57-1.712Zm.213.091-.929 1.548c.113.068.233.123.358.164l.57-1.712Zm.548.229-.717 1.656.066.027.651-1.683Zm.701.305-.849 1.592c.041.022.083.042.126.061l.723-1.653Zm.655.365.988-1.51a1.436 1.436 0 0 0-.026-.017l-.962 1.527Zm.29 4.632 1.218 1.332.013-.012-1.231-1.32Zm-5.881.412-1.799-.15c-.073.879.5 1.681 1.353 1.899l.446-1.75Zm.213-2.575.444-1.75a1.805 1.805 0 0 0-2.243 1.6l1.799.15Zm3.108-.061-1.174 1.37c.03.026.06.05.091.073l1.083-1.443Zm-.335-.198-.807 1.614.044.021.763-1.635Zm-.64-.275-.71 1.66.05.02.66-1.68Zm-.716-.304-.773 1.63c.024.012.048.023.073.033l.7-1.663Zm-.686-.412 1.028-1.483-.005-.004-1.023 1.487Zm.586-2.346c0-.618.172-.872.329-1.016l-2.439-2.66c-1.061.972-1.5 2.283-1.5 3.676h3.61Zm.329-1.016c.186-.17.544-.364 1.31-.364v-3.61c-1.388 0-2.716.366-3.749 1.313l2.439 2.66Zm1.31-.364c.974 0 1.986.091 3.037.277l.63-3.554a21.024 21.024 0 0 0-3.667-.332v3.61Zm1.562-1.734-.35 2.682 3.579.468.35-2.682-3.579-.468Zm1.793 1.146c-1.228-.246-2.244-.416-2.852-.416v3.61c.184 0 .834.083 2.145.345l.707-3.539Zm-2.852-.416c-.325 0-.872.04-1.392.36a2.104 2.104 0 0 0-1.007 1.81h3.61c0 .188-.04.44-.182.7a1.502 1.502 0 0 1-.53.563c-.32.198-.571.176-.5.176v-3.609Zm-2.4 2.17c0 .526.206 1.24.896 1.7L6.8 15.941c.245.163.443.393.569.665.118.257.143.488.143.638h-3.61Zm1.09 1.813.01.005a.675.675 0 0 1-.067-.042l2.002-3.003a3.12 3.12 0 0 0-.331-.189l-1.614 3.229Zm-.057-.037c.22.147.452.234.535.265l1.267-3.38c-.016-.006-.01-.004.01.005a1.161 1.161 0 0 1 .19.107L4.935 19.02Zm.598.287c.01.003.002.001-.018-.008a1.061 1.061 0 0 1-.127-.065l1.857-3.095a2.88 2.88 0 0 0-.57-.256l-1.142 3.424Zm.213.091-.025-.008.085.035c.08.033.193.081.342.146l1.435-3.312a11.08 11.08 0 0 0-.695-.285l-1.142 3.424Zm.468.2c.298.115.45.186.503.214l1.699-3.185a8.549 8.549 0 0 0-.9-.395l-1.302 3.366Zm.629.275c.039.017.168.082.417.24l1.923-3.055a7.054 7.054 0 0 0-.893-.492l-1.447 3.307Zm.39.223c.246.16.372.333.372.775h3.61c0-1.57-.667-2.92-2.006-3.796l-1.975 3.02Zm.372.775c0 .627-.172.884-.325 1.026l2.462 2.64c1.046-.975 1.473-2.282 1.473-3.666h-3.61Zm-.312 1.015c-.157.143-.52.35-1.372.35v3.609c1.403 0 2.766-.342 3.808-1.296l-2.436-2.663Zm-1.372.35c-.968 0-1.916-.12-2.846-.356l-.89 3.498c1.222.311 2.469.467 3.736.467v-3.61Zm-1.493 1.542.213-2.575-3.597-.298-.213 2.575 3.597.298ZM2.4 22.803c1.326.337 2.462.573 3.202.573v-3.609c-.216 0-.918-.108-2.314-.463l-.888 3.499Zm3.202.573c.316 0 .876-.046 1.398-.416a2.09 2.09 0 0 0 .879-1.724h-3.61c0-.155.028-.377.142-.62a1.54 1.54 0 0 1 .5-.6c.365-.259.69-.249.69-.249v3.61Zm2.277-2.14c0-.67-.308-1.285-.844-1.687l-2.166 2.887a1.504 1.504 0 0 1-.44-.53 1.503 1.503 0 0 1-.16-.67h3.61Zm-.752-1.614a3.273 3.273 0 0 0-.747-.463L4.853 22.43l.043.021a1.051 1.051 0 0 1-.12-.088l2.35-2.74Zm-.703-.442c-.216-.107-.49-.222-.787-.34l-1.32 3.36c.271.107.424.175.493.209l1.614-3.229Zm-.736-.318-.727-.31-1.4 3.327.705.3 1.422-3.317Zm-.654-.277a3.376 3.376 0 0 1-.431-.265l-2.055 2.968c.309.214.626.41.94.559l1.546-3.262Zm-.436-.268c-.312-.214-.437-.434-.437-.86H.55c0 1.587.688 2.931 2.002 3.834l2.045-2.974Zm13.389 5.57v1.805a1.805 1.805 0 0 0 1.767-2.171l-1.767.367Zm-3.2 0-1.767.369a1.805 1.805 0 0 0 1.767 1.436v-1.804Zm-.305-1.462 1.767-.368a1.805 1.805 0 0 0-1.767-1.437v1.805Zm-1.691 0V20.62c-.848 0-1.582.59-1.763 1.42l1.763.385Zm-.32 1.463v1.804c.848 0 1.582-.59 1.763-1.419l-1.763-.385Zm-3.063 0-1.766-.367a1.805 1.805 0 0 0 1.766 2.171v-1.804Zm1.966-9.462V12.62c-.855 0-1.593.6-1.767 1.438l1.767.367Zm4.647 0 1.767-.367a1.805 1.805 0 0 0-1.767-1.438v1.805Zm-1.767 6.033v1.805a1.805 1.805 0 0 0 1.775-2.129l-1.775.324Zm-.58-3.169 1.776-.324a1.805 1.805 0 0 0-1.775-1.48v1.804Zm-.06 0v-1.804c-.869 0-1.614.618-1.774 1.472l1.774.332Zm-.594 3.17-1.774-.333a1.805 1.805 0 0 0 1.774 2.137V20.46Zm4.967 1.623h-3.2v3.61h3.2v-3.61Zm-1.433 1.437-.305-1.463-3.534.736.305 1.463 3.534-.736Zm-2.072-2.9H12.79v3.61h1.691v-3.61Zm-3.454 1.42-.32 1.462 3.526.771.32-1.462-3.526-.772Zm1.443.043H9.407v3.61h3.063v-3.61Zm-1.296 2.172 1.966-9.462-3.534-.734-1.965 9.462 3.533.734Zm.199-8.025h4.647v-3.609h-4.647v3.61Zm2.88-1.437 1.966 9.462 3.534-.734-1.966-9.462-3.534.734Zm1.775 5.342-.579-3.17-3.55.65.578 3.169 3.551-.649Zm-2.354-4.65h-.061v3.61h.06v-3.61Zm-1.835 1.473-.594 3.169 3.547.665.595-3.17-3.548-.664Zm1.18 5.306h1.234v-3.61h-1.234v3.61Zm13.406-7.838 1.772.342a1.804 1.804 0 0 0-1.771-2.147v1.805Zm-1.828 9.462v1.804c.865 0 1.608-.613 1.772-1.462l-1.772-.342Zm-4.678 0-1.768.361c.172.84.911 1.443 1.768 1.443v-1.804Zm-1.935-9.462V12.62a1.805 1.805 0 0 0-1.768 2.166l1.768-.361Zm3.52 0 1.79-.226a1.805 1.805 0 0 0-1.79-1.579v1.805Zm.731 5.805-1.79.225c.114.903.881 1.58 1.79 1.58V20.23Zm.183 0v1.805c.919 0 1.69-.69 1.794-1.603l-1.794-.202Zm.655-5.805V12.62c-.918 0-1.69.69-1.793 1.602l1.793.203Zm1.58-.343-1.828 9.462 3.544.685 1.828-9.462-3.543-.685Zm-.056 8H19.92v3.61h4.678v-3.61Zm-2.91 1.443-1.934-9.462-3.537.723 1.935 9.462 3.537-.723Zm-3.703-7.296h3.52v-3.609h-3.52v3.61Zm1.73-1.579.73 5.805 3.582-.45-.731-5.806-3.581.451Zm2.521 7.385h.183v-3.61h-.183v3.61Zm1.977-1.603.655-5.805-3.587-.405-.655 5.806 3.587.404Zm-1.139-4.203h3.352v-3.609h-3.352v3.61Zm9.99 7.658v1.804c.933 0 1.712-.71 1.798-1.639l-1.797-.165Zm-6.033 0h-1.805c0 .996.808 1.804 1.805 1.804v-1.804Zm0-9.462V12.62c-.997 0-1.805.808-1.805 1.805h1.805Zm6.247 0 1.798.152a1.805 1.805 0 0 0-1.798-1.957v1.805Zm-.214 2.514v1.804c.938 0 1.72-.717 1.799-1.652l-1.799-.152Zm-2.773 0v-1.805c-.996 0-1.804.808-1.804 1.805h1.804Zm0 1.142h-1.804c0 .997.808 1.805 1.804 1.805v-1.805Zm2.423 0h1.805c0-.996-.808-1.804-1.805-1.804v1.805Zm0 2.195v1.804c.997 0 1.805-.808 1.805-1.804h-1.805Zm-2.423 0v-1.805c-.996 0-1.804.808-1.804 1.805h1.804Zm0 1.295h-1.804c0 .996.808 1.804 1.804 1.804v-1.804Zm2.987 0 1.797.165a1.805 1.805 0 0 0-1.797-1.97v1.805Zm-.214.511H27.03v3.61h6.033v-3.61Zm-4.229 1.805v-9.462h-3.609v9.462h3.61ZM27.03 16.23h6.247v-3.609H27.03v3.61Zm4.449-1.957-.214 2.514 3.597.305.213-2.514-3.596-.305Zm1.584.862H30.29v3.61h2.773v-3.61Zm-4.577 1.805v1.142h3.61V16.94h-3.61Zm1.804 2.947h2.423v-3.61H30.29v3.61Zm.618-1.805v2.195h3.61v-2.195h-3.61Zm1.805.39H30.29v3.61h2.423v-3.61Zm-4.227 1.805v1.295h3.61v-1.295h-3.61Zm1.804 3.1h2.987v-3.61H30.29v3.61Zm1.19-1.97-.214 2.315 3.595.331.213-2.316-3.594-.33Zm9.588-2.471-1.577-.877a.76.76 0 0 0-.009.016l1.587.86Zm-.914.945-.992-1.508a1.805 1.805 0 0 0-.71 2.11l1.702-.602Zm1.417 4.007v1.804a1.804 1.804 0 0 0 1.702-2.406l-1.702.602Zm-3.367 0-1.733.502c.223.771.93 1.302 1.733 1.302v-1.804Zm-.945-3.26 1.734-.503a1.805 1.805 0 0 0-1.734-1.303v1.805Zm-.243 0v-1.806c-.997 0-1.805.808-1.805 1.805h1.805Zm0 3.26v1.804c.996 0 1.804-.808 1.804-1.804h-1.804Zm-3.124 0h-1.805c0 .996.808 1.804 1.805 1.804v-1.804Zm0-9.462V12.62c-.997 0-1.805.808-1.805 1.805h1.805Zm6.643.746-1.2 1.348.014.012 1.186-1.36Zm-2.712 3.398-1.468-1.049-.016.022 1.484 1.027Zm0-1.447-1.43 1.1 1.43-1.1Zm-.868-.198V15.12c-.997 0-1.805.808-1.805 1.805h1.805Zm0 1.843H35.15c0 .997.808 1.805 1.805 1.805v-1.805Zm2.614-1.295c0 .207-.018.355-.039.455-.02.098-.04.134-.04.131l3.156 1.753c.405-.728.532-1.553.532-2.339h-3.61Zm-.087.602c-.022.04-.095.15-.32.298l1.985 3.015c.607-.4 1.144-.92 1.508-1.591l-3.173-1.722Zm-1.03 2.407 1.418 4.007 3.403-1.203-1.417-4.007-3.403 1.203Zm3.12 1.601h-3.368v3.61h3.367v-3.61Zm-1.635 1.303-.944-3.261-3.467 1.004.945 3.26 3.466-1.003Zm-2.678-4.564h-.243v3.61h.243v-3.61Zm-2.048 1.805v3.26h3.61v-3.26h-3.61Zm1.805 1.456h-3.124v3.61h3.123v-3.61Zm-1.32 1.805v-9.462h-3.609v9.462h3.61Zm-1.804-7.658h4.038v-3.609h-4.038v3.61Zm4.038 0c.978 0 1.321.215 1.405.29l2.4-2.695c-1.033-.921-2.427-1.204-3.805-1.204v3.61Zm1.419.302c.025.022.22.195.22.941h3.609c0-1.346-.364-2.707-1.456-3.66l-2.373 2.719Zm-2.013 4.04c.539 0 1.407-.16 1.97-.975l-2.967-2.054c.173-.25.402-.41.614-.496.194-.079.34-.084.383-.084v3.61Zm1.956-.953c.448-.628.488-1.366.488-1.78h-3.61c0 .092-.007.11 0 .074a.814.814 0 0 1 .041-.131c.025-.064.07-.157.144-.26l2.937 2.097Zm.488-1.78c0-.392-.031-1.173-.526-1.817l-2.861 2.201a1.293 1.293 0 0 1-.172-.295.895.895 0 0 1-.049-.152c-.009-.043-.001-.031-.001.063h3.61Zm-.526-1.817c-.536-.696-1.302-.902-1.903-.902v3.61c-.075 0-.23-.012-.42-.092a1.336 1.336 0 0 1-.538-.415l2.86-2.2Zm-1.903-.902h-.396v3.61h.396v-3.61Zm-2.201 1.805v1.843h3.61v-1.843h-3.61Zm1.805 3.648h.38v-3.61h-.38v3.61Z" mask="url(#path-3-outside-1_880_37048)"/><mask id="path-5-outside-2_880_37048" width="39" height="14" x="2.305" y="-.48" fill="#000" maskUnits="userSpaceOnUse"><path fill="#fff" d="M2.305-.48h39v14h-39z"/><path d="M4.549 4.907c0-.904.264-1.63.792-2.179.528-.549 1.25-.823 2.164-.823.924 0 1.869.092 2.834.274l-.305 2.438c-1.006-.233-1.696-.35-2.072-.35-.478 0-.716.193-.716.579 0 .152.111.3.335.442.233.142.513.294.838.457.325.152.65.34.975.564.325.213.6.523.823.929.233.406.35.874.35 1.402 0 .965-.259 1.711-.777 2.24-.518.528-1.254.792-2.21.792a8.896 8.896 0 0 1-2.772-.442l.167-2.27c1.087.315 1.844.472 2.27.472.427 0 .64-.188.64-.564 0-.193-.116-.37-.35-.533a5.87 5.87 0 0 0-.823-.487 11.07 11.07 0 0 1-.99-.564c-.325-.214-.604-.523-.838-.93-.224-.406-.335-.888-.335-1.447Zm9.595 3.504c0 .315.066.549.198.701.132.153.345.229.64.229.305 0 .513-.071.625-.214.122-.152.183-.396.183-.731V2.058h2.62v6.49c0 1.087-.3 1.88-.899 2.377-.589.498-1.462.747-2.62.747-1.148 0-2.007-.244-2.575-.732-.559-.497-.838-1.284-.838-2.361V2.058h2.666V8.41Zm8.867.016h-.7v3.093h-2.56V2.058h3.093c1.087 0 1.894.248 2.422.746.529.498.793 1.316.793 2.453 0 1.138-.25 1.95-.747 2.438-.498.488-1.265.732-2.3.732Zm.29-2.057c.091-.173.137-.483.137-.93 0-.447-.05-.762-.152-.945-.102-.182-.305-.274-.61-.274h-.366V6.63h.427c.285 0 .472-.087.564-.26Zm8.637 5.15h-5.12V2.058h5.272l-.152 2.33h-2.514v1.418h2.179v2.011h-2.18v1.57h2.667l-.152 2.133Zm7.516-6.46c0 .568-.086 1.04-.259 1.416a2.922 2.922 0 0 1-.807 1.021l1.264 4.023h-2.819l-.944-3.413h-.35v3.413h-2.56V2.058h3.535c1.015 0 1.757.238 2.224.716.477.477.716 1.239.716 2.285Zm-3.52 1.447c.265 0 .453-.076.564-.229.112-.152.168-.426.168-.823 0-.406-.056-.685-.168-.838-.111-.162-.294-.243-.548-.243h-.412v2.133h.397Z"/></mask><g filter="url(#filter1_i_880_37048)"><path fill="#fff" d="M4.549 4.907c0-.904.264-1.63.792-2.179.528-.549 1.25-.823 2.164-.823.924 0 1.869.092 2.834.274l-.305 2.438c-1.006-.233-1.696-.35-2.072-.35-.478 0-.716.193-.716.579 0 .152.111.3.335.442.233.142.513.294.838.457.325.152.65.34.975.564.325.213.6.523.823.929.233.406.35.874.35 1.402 0 .965-.259 1.711-.777 2.24-.518.528-1.254.792-2.21.792a8.896 8.896 0 0 1-2.772-.442l.167-2.27c1.087.315 1.844.472 2.27.472.427 0 .64-.188.64-.564 0-.193-.116-.37-.35-.533a5.87 5.87 0 0 0-.823-.487 11.07 11.07 0 0 1-.99-.564c-.325-.214-.604-.523-.838-.93-.224-.406-.335-.888-.335-1.447Zm9.595 3.504c0 .315.066.549.198.701.132.153.345.229.64.229.305 0 .513-.071.625-.214.122-.152.183-.396.183-.731V2.058h2.62v6.49c0 1.087-.3 1.88-.899 2.377-.589.498-1.462.747-2.62.747-1.148 0-2.007-.244-2.575-.732-.559-.497-.838-1.284-.838-2.361V2.058h2.666V8.41Zm8.867.016h-.7v3.093h-2.56V2.058h3.093c1.087 0 1.894.248 2.422.746.529.498.793 1.316.793 2.453 0 1.138-.25 1.95-.747 2.438-.498.488-1.265.732-2.3.732Zm.29-2.057c.091-.173.137-.483.137-.93 0-.447-.05-.762-.152-.945-.102-.182-.305-.274-.61-.274h-.366V6.63h.427c.285 0 .472-.087.564-.26Zm8.637 5.15h-5.12V2.058h5.272l-.152 2.33h-2.514v1.418h2.179v2.011h-2.18v1.57h2.667l-.152 2.133Zm7.516-6.46c0 .568-.086 1.04-.259 1.416a2.922 2.922 0 0 1-.807 1.021l1.264 4.023h-2.819l-.944-3.413h-.35v3.413h-2.56V2.058h3.535c1.015 0 1.757.238 2.224.716.477.477.716 1.239.716 2.285Zm-3.52 1.447c.265 0 .453-.076.564-.229.112-.152.168-.426.168-.823 0-.406-.056-.685-.168-.838-.111-.162-.294-.243-.548-.243h-.412v2.133h.397Z"/></g><path fill="#262A33" d="m5.341 2.728 1.182 1.138-1.182-1.138Zm4.998-.549 1.628.204A1.64 1.64 0 0 0 10.644.567L10.34 2.18Zm-.305 2.438-.371 1.599a1.64 1.64 0 0 0 2-1.395l-1.63-.204Zm-2.453.67L6.7 6.673l.028.017.853-1.401Zm.838.458-.734 1.468.037.018.697-1.486Zm.975.564-.93 1.352.03.02.9-1.372Zm.823.929-1.438.79.015.028 1.423-.818ZM9.79 10.88 8.62 9.73l1.171 1.15Zm-4.982.35-1.637-.12A1.641 1.641 0 0 0 4.3 12.79l.509-1.56Zm.167-2.27.457-1.576a1.641 1.641 0 0 0-2.093 1.455l1.636.12Zm2.56-.625L6.57 9.662l.028.02.937-1.347Zm-.823-.487.734-1.468-.734 1.468Zm-.99-.564-.9 1.372.019.012.88-1.384Zm-.838-.93-1.438.791.015.027 1.423-.818ZM6.19 4.907c0-.565.153-.854.333-1.04L4.16 1.59c-.877.91-1.251 2.073-1.251 3.317H6.19Zm.333-1.04c.158-.165.417-.32.982-.32V.263C6.24.264 5.057.657 4.159 1.59l2.364 2.276Zm.982-.32c.815 0 1.658.08 2.528.245l.611-3.225c-1.06-.2-2.106-.303-3.14-.303v3.282ZM8.71 1.975l-.304 2.438 3.256.407.305-2.438-3.257-.407Zm1.695 1.043c-.986-.23-1.852-.393-2.443-.393v3.282c.16 0 .676.07 1.7.308l.743-3.197Zm-2.443-.393c-.417 0-1.034.077-1.57.51-.6.486-.787 1.16-.787 1.71h3.282a.99.99 0 0 1-.08.372 1.193 1.193 0 0 1-.35.47c-.297.239-.556.22-.495.22V2.626Zm-2.357 2.22c0 1.03.748 1.605 1.095 1.826l1.762-2.769a.093.093 0 0 1 .011.008.922.922 0 0 1 .164.168c.113.15.25.414.25.767H5.605Zm1.123 1.843c.282.173.604.347.957.524l1.468-2.936a10.048 10.048 0 0 1-.719-.391L6.728 6.689Zm.994.542c.237.11.484.252.742.43l1.86-2.705a8.514 8.514 0 0 0-1.209-.697L7.722 7.231Zm.772.45c.061.04.166.131.285.348l2.876-1.582c-.328-.596-.772-1.124-1.36-1.51L8.493 7.68Zm.3.375c.073.127.132.306.132.584h3.282c0-.778-.175-1.534-.569-2.22L8.794 8.056Zm.132.584c0 .67-.174.954-.307 1.09l2.343 2.299c.902-.92 1.246-2.13 1.246-3.39H8.926ZM8.62 9.73c-.127.13-.39.3-1.038.3v3.283c1.261 0 2.471-.357 3.38-1.284L8.62 9.73Zm-1.038.3c-.771 0-1.524-.119-2.265-.36L4.3 12.79c1.067.348 2.163.523 3.282.523V10.03Zm-1.137 1.32.168-2.27-3.273-.241-.168 2.27 3.273.242Zm-1.925-.814c1.068.31 2.036.537 2.727.537V7.791c-.163 0-.709-.087-1.814-.407l-.913 3.152Zm2.727.537c.418 0 1.039-.088 1.564-.55.565-.498.717-1.156.717-1.655H6.245c0-.122.044-.498.396-.808.155-.137.312-.205.422-.238a.677.677 0 0 1 .183-.03v3.281Zm2.28-2.205c0-.952-.6-1.565-1.054-1.88L6.598 9.682s-.083-.056-.171-.19a1.144 1.144 0 0 1-.182-.624h3.282ZM8.5 7.008a7.493 7.493 0 0 0-1.054-.628L5.978 9.315c.268.134.46.251.592.347L8.5 7.008ZM7.446 6.38a9.431 9.431 0 0 1-.843-.48L4.84 8.667c.378.241.758.457 1.137.647L7.446 6.38Zm-.824-.468c-.07-.046-.184-.147-.316-.376L3.461 7.172c.336.584.78 1.103 1.36 1.484l1.801-2.744Zm-.3-.348c-.066-.12-.132-.319-.132-.657H2.908c0 .779.157 1.545.538 2.238l2.876-1.581Zm9.285 3.563-1.282-1.025a.708.708 0 0 0-.008.012l1.29 1.013Zm.183-7.07V.418c-.907 0-1.641.734-1.641 1.64h1.64Zm2.62 0h1.641c0-.906-.734-1.64-1.64-1.64v1.64Zm-.899 8.868-1.048-1.262-.01.009 1.058 1.253Zm-5.195.015-1.092 1.226.024.02 1.068-1.245Zm-.838-8.882V.417c-.907 0-1.641.734-1.641 1.64h1.64Zm2.666 0h1.641c0-.907-.735-1.641-1.64-1.641v1.64Zm-1.64 6.353c0 .499.096 1.197.598 1.776l2.48-2.15c.12.14.171.27.19.34.019.063.013.083.013.034h-3.282Zm.598 1.776c.566.652 1.334.795 1.88.795V7.7c-.043 0 .299-.01.6.337l-2.48 2.15Zm1.88.795c.471 0 1.33-.097 1.915-.84l-2.58-2.028c.178-.228.39-.335.52-.38.118-.04.181-.034.145-.034v3.282Zm1.906-.83c.47-.588.543-1.29.543-1.756h-3.282c0 .075-.008.08.003.036a.893.893 0 0 1 .173-.33l2.563 2.05Zm.543-1.756V2.058h-3.282v6.338h3.282ZM15.79 3.699h2.62V.417h-2.62v3.282Zm.98-1.641v6.49h3.281v-6.49H16.77Zm0 6.49c0 .801-.215 1.038-.307 1.115l2.097 2.525c1.106-.92 1.491-2.267 1.491-3.64H16.77Zm-.318 1.124c-.176.148-.604.359-1.561.359v3.282c1.358 0 2.677-.287 3.68-1.134l-2.119-2.507Zm-1.561.359c-.956 0-1.359-.21-1.507-.336l-2.136 2.492c.989.847 2.303 1.126 3.643 1.126V10.03Zm-1.484-.316c-.078-.07-.288-.317-.288-1.136H9.837c0 1.334.348 2.66 1.387 3.587l2.183-2.45ZM13.12 8.58V2.058H9.837v6.52h3.282Zm-1.641-4.88h2.666V.417h-2.666v3.282Zm1.025-1.641V8.41h3.282V2.058h-3.282Zm9.807 6.369V6.786c-.906 0-1.64.734-1.64 1.64h1.64Zm0 3.093v1.64c.907 0 1.641-.734 1.641-1.64h-1.64Zm-2.56 0h-1.64c0 .906.734 1.64 1.64 1.64v-1.64Zm0-9.462V.417c-.906 0-1.64.734-1.64 1.64h1.64Zm5.562 5.637-1.148-1.172 1.148 1.172ZM23.301 6.37l-1.45-.768 1.45.768Zm-.015-1.875L24.72 3.7l-1.434.796Zm-.976-.274v-1.64c-.906 0-1.64.734-1.64 1.64h1.64Zm0 2.408h-1.64c0 .906.734 1.64 1.64 1.64V6.63Zm.701.157h-.7v3.282h.7V6.786Zm-2.341 1.64v3.094h3.281V8.427H20.67Zm1.64 1.453h-2.56v3.282h2.56V9.879Zm-.918 1.64V2.059H18.11v9.462h3.282ZM19.75 3.7h3.093V.417H19.75v3.282Zm3.093 0c.872 0 1.195.203 1.297.3l2.25-2.39C25.438.712 24.146.418 22.845.418v3.282Zm1.297.3c.053.049.277.321.277 1.258H27.7c0-1.338-.304-2.701-1.308-3.647L24.14 3.998Zm.277 1.258c0 .964-.222 1.234-.254 1.266l2.296 2.344c.963-.943 1.24-2.298 1.24-3.61h-3.282Zm-.254 1.266c-.07.068-.34.263-1.153.263v3.282c1.26 0 2.524-.294 3.45-1.2l-2.297-2.345Zm.587.614c.299-.564.328-1.243.328-1.697h-3.282a3.536 3.536 0 0 1-.017.328c-.003.024-.004.02.002-.002a.86.86 0 0 1 .069-.164l2.9 1.535Zm.328-1.697c0-.476-.038-1.164-.359-1.741l-2.869 1.593a.826.826 0 0 1-.068-.154c-.007-.024-.007-.028-.003-.008a3.1 3.1 0 0 1 .017.31h3.282ZM24.72 3.7c-.513-.923-1.445-1.119-2.044-1.119v3.282c-.004 0-.033 0-.081-.009a.916.916 0 0 1-.211-.067c-.199-.09-.4-.255-.533-.494l2.87-1.593ZM22.676 2.58h-.366v3.282h.366V2.58ZM20.67 4.221V6.63h3.281V4.22H20.67Zm1.64 4.049h.427V4.988h-.427V8.27Zm.427 0c.583 0 1.518-.195 2.014-1.133l-2.9-1.535c.133-.252.342-.431.555-.53.186-.085.32-.084.331-.084V8.27Zm9.201 3.25v1.64c.86 0 1.575-.665 1.637-1.524l-1.637-.116Zm-5.12 0h-1.64c0 .906.734 1.64 1.64 1.64v-1.64Zm0-9.462V.417c-.906 0-1.64.734-1.64 1.64h1.64Zm5.272 0 1.638.107A1.64 1.64 0 0 0 32.09.417v1.64Zm-.152 2.33V6.03c.865 0 1.581-.671 1.637-1.534l-1.637-.107Zm-2.514 0v-1.64c-.906 0-1.641.734-1.641 1.64h1.64Zm0 1.418h-1.641c0 .906.735 1.64 1.64 1.64v-1.64Zm2.179 0h1.64a1.64 1.64 0 0 0-1.64-1.641v1.64Zm0 2.011v1.641a1.64 1.64 0 0 0 1.64-1.641h-1.64Zm-2.18 0V6.176c-.905 0-1.64.735-1.64 1.641h1.64Zm0 1.57h-1.64c0 .906.735 1.64 1.64 1.64v-1.64Zm2.667 0 1.637.116a1.641 1.641 0 0 0-1.637-1.758v1.641Zm-.152.492h-5.12v3.282h5.12V9.879Zm-3.479 1.64V2.059h-3.282v9.462h3.282ZM26.82 3.7h5.271V.417h-5.272v3.282Zm3.634-1.748L30.3 4.28l3.274.215.153-2.331-3.275-.214Zm1.485.797h-2.514V6.03h2.514V2.748Zm-4.155 1.64v1.418h3.282V4.389h-3.282Zm1.64 3.059h2.18V4.165h-2.18v3.282Zm.539-1.641v2.011h3.282V5.806h-3.282Zm1.64.37h-2.178v3.282h2.179V6.176Zm-3.82 1.641v1.57h3.283v-1.57h-3.282Zm1.642 3.21h2.666V7.745h-2.666v3.282Zm1.03-1.758-.153 2.134 3.274.233.152-2.133-3.273-.234Zm8.741-2.793-1.491-.685 1.491.685Zm-.807 1.021-1.051-1.26a1.641 1.641 0 0 0-.515 1.752l1.566-.492Zm1.264 4.023v1.64a1.641 1.641 0 0 0 1.566-2.133l-1.566.493Zm-2.819 0-1.581.437c.197.711.844 1.204 1.581 1.204V11.52Zm-.944-3.413 1.581-.438a1.641 1.641 0 0 0-1.581-1.203v1.64Zm-.35 0V6.466c-.907 0-1.642.734-1.642 1.64h1.641Zm0 3.413v1.64c.906 0 1.64-.734 1.64-1.64h-1.64Zm-2.56 0h-1.641c0 .906.734 1.64 1.64 1.64v-1.64Zm0-9.462V.417c-.907 0-1.641.734-1.641 1.64h1.64Zm5.759.716-1.173 1.148a.976.976 0 0 0 .013.012l1.16-1.16Zm-2.24 3.504 1.324.97-1.324-.97Zm0-1.66-1.352.929.029.04 1.323-.97Zm-.96-.244V2.733c-.906 0-1.64.734-1.64 1.64h1.64Zm0 2.133h-1.64c0 .906.734 1.64 1.64 1.64v-1.64Zm2.275-1.448c0 .416-.065.636-.109.732l2.982 1.37c.301-.655.41-1.38.41-2.102h-3.283Zm-.109.732c-.056.122-.16.274-.367.445l2.101 2.522a4.558 4.558 0 0 0 1.248-1.597l-2.982-1.37Zm-.882 2.198 1.265 4.023 3.13-.985-1.264-4.022-3.13.984Zm2.83 1.89h-2.819v3.282h2.82V9.879Zm-1.237 1.203-.945-3.413-3.163.875.945 3.413 3.163-.875Zm-2.526-4.616h-.35v3.282h.35V6.466Zm-1.992 1.64v3.414h3.282V8.107h-3.282Zm1.641 1.773h-2.56v3.282h2.56V9.879Zm-.918 1.64V2.059h-3.282v9.462h3.282ZM32.979 3.7h3.535V.417h-3.535v3.282Zm3.535 0c.8 0 1.021.192 1.051.223l2.346-2.296C39.006.7 37.744.416 36.513.416V3.7Zm1.064.235c.036.037.235.28.235 1.125h3.282c0-1.248-.279-2.528-1.197-3.446l-2.32 2.321Zm-1.644 4.214c.565 0 1.355-.174 1.888-.9l-2.647-1.94c.137-.188.315-.312.482-.38a.77.77 0 0 1 .278-.062v3.282Zm1.888-.9c.447-.61.485-1.36.485-1.793h-3.282c0 .062-.002.107-.005.138l-.004.038a.57.57 0 0 1 .028-.09c.02-.052.06-.136.13-.233l2.648 1.94Zm.485-1.793c0-.432-.035-1.194-.486-1.808l-2.646 1.94a1.052 1.052 0 0 1-.133-.238c-.02-.051-.027-.083-.027-.086l.005.045c.003.034.005.083.005.147h3.282Zm-.457-1.767c-.504-.734-1.28-.955-1.9-.955v3.282a.858.858 0 0 1-.34-.08 1.123 1.123 0 0 1-.464-.388l2.704-1.86Zm-1.9-.955h-.412v3.282h.412V2.733Zm-2.053 1.64v2.134h3.282V4.374h-3.282Zm1.641 3.775h.397V4.866h-.397v3.282Z" mask="url(#path-5-outside-2_880_37048)"/><defs><filter id="filter0_i_880_37048" width="39.216" height="9.947" x="2.355" y="14.093" color-interpolation-filters="sRGB" filterUnits="userSpaceOnUse"><feFlood flood-opacity="0" result="BackgroundImageFix"/><feBlend in="SourceGraphic" in2="BackgroundImageFix" mode="normal" result="shape"/><feColorMatrix in="SourceAlpha" result="hardAlpha" type="matrix" values="0 0 0 0 0 0 0 0 0 0 0 0 0 0 0 0 0 0 127 0"/><feOffset dy="-.271"/><feGaussianBlur stdDeviation=".09"/><feComposite in2="hardAlpha" k2="-1" k3="1" operator="arithmetic"/><feColorMatrix type="matrix" values="0 0 0 0 0.251579 0 0 0 0 0.251579 0 0 0 0 0.251579 0 0 0 0.5 0"/><feBlend in2="shape" mode="normal" result="effect1_innerShadow_880_37048"/></filter><filter id="filter1_i_880_37048" width="35.103" height="9.931" x="4.549" y="1.741" color-interpolation-filters="sRGB" filterUnits="userSpaceOnUse"><feFlood flood-opacity="0" result="BackgroundImageFix"/><feBlend in="SourceGraphic" in2="BackgroundImageFix" mode="normal" result="shape"/><feColorMatrix in="SourceAlpha" result="hardAlpha" type="matrix" values="0 0 0 0 0 0 0 0 0 0 0 0 0 0 0 0 0 0 127 0"/><feOffset dy="-.246"/><feGaussianBlur stdDeviation=".082"/><feComposite in2="hardAlpha" k2="-1" k3="1" operator="arithmetic"/><feColorMatrix type="matrix" values="0 0 0 0 0.251579 0 0 0 0 0.251579 0 0 0 0 0.251579 0 0 0 0.5 0"/><feBlend in2="shape" mode="normal" result="effect1_innerShadow_880_37048"/></filter><linearGradient id="paint0_linear_880_37048" x1="22.203" x2="22.203" y1="13.888" y2="24.888" gradientUnits="userSpaceOnUse"><stop stop-color="#FCFA5C"/><stop offset="1" stop-color="#FED069"/></linearGradient></defs></svg>